<?xml version="1.0" standalone="no"?>
<!DOCTYPE svg PUBLIC "-//W3C//DTD SVG 20010904//EN"
 "http://www.w3.org/TR/2001/REC-SVG-20010904/DTD/svg10.dtd">
<svg version="1.0" xmlns="http://www.w3.org/2000/svg"
 width="512.000000pt" height="512.000000pt" viewBox="0 0 512.000000 512.000000"
 preserveAspectRatio="xMidYMid meet">

<g transform="translate(0.000000,512.000000) scale(0.100000,-0.100000)"
fill="#000000" stroke="none">
<path d="M129 5087 c-36 -28 -39 -51 -39 -337 l0 -282 29 -29 c48 -47 116 -38
146 21 12 23 15 72 15 245 l0 215 2290 0 2290 0 -2 -1647 -3 -1648 -28 -60
c-36 -77 -110 -147 -185 -176 -41 -16 -87 -23 -165 -27 -105 -4 -108 -5 -133
-35 -21 -25 -25 -38 -20 -66 10 -62 34 -76 140 -79 114 -5 229 21 314 69 74
43 160 131 199 204 67 128 63 4 63 1889 l0 1707 -25 24 -24 25 -2423 0 c-1889
-1 -2426 -3 -2439 -13z"/>
<path d="M163 4189 c-17 -5 -41 -21 -52 -36 l-21 -26 2 -1448 3 -1448 23 -23
c22 -23 28 -23 267 -26 204 -2 249 0 274 12 35 19 56 71 42 107 -19 51 -31 54
-235 59 l-191 5 -3 1323 -2 1322 2074 0 c1297 0 2084 4 2100 10 27 10 56 56
56 89 0 12 -13 35 -29 53 l-29 33 -2124 2 c-1277 1 -2136 -2 -2155 -8z"/>
<path d="M2267 3756 c-144 -52 -235 -235 -187 -381 32 -99 169 -253 338 -379
116 -88 131 -88 244 -4 124 93 277 250 318 328 31 58 35 73 34 140 0 91 -23
148 -85 215 -66 72 -108 90 -209 90 -70 0 -93 -4 -132 -24 l-46 -24 -53 27
c-61 30 -156 35 -222 12z m137 -177 c14 -7 37 -29 51 -51 49 -74 111 -74 175
2 22 26 51 51 65 54 58 15 135 -52 135 -117 0 -15 -9 -46 -21 -68 -23 -45
-162 -188 -227 -233 l-42 -29 -37 29 c-66 49 -192 176 -223 224 -17 26 -30 57
-30 69 0 39 39 102 73 116 40 18 50 18 81 4z"/>
<path d="M1685 3060 c-191 -21 -349 -102 -488 -250 -83 -88 -152 -212 -183
-330 -27 -99 -25 -292 4 -393 28 -100 78 -197 143 -282 l51 -67 -38 -31 c-52
-42 -110 -103 -143 -152 -15 -22 -101 -184 -190 -360 -154 -303 -163 -325
-178 -414 -13 -78 -14 -108 -5 -168 13 -78 48 -165 87 -211 22 -26 24 -38 27
-180 3 -150 3 -152 30 -179 36 -35 90 -36 125 0 28 28 29 36 25 264 l-2 142
-41 48 c-23 26 -48 62 -55 80 -17 39 -18 162 -3 218 6 22 83 181 172 354 135
263 169 323 213 368 57 58 120 92 171 93 47 0 93 43 93 87 0 49 -13 67 -75
109 -181 120 -280 361 -241 584 51 285 297 490 588 490 155 0 296 -59 409
-170 73 -72 111 -131 146 -228 l24 -65 -21 -19 c-48 -45 -45 -117 6 -157 24
-19 24 -21 12 -77 -16 -71 -45 -95 -122 -102 -47 -4 -65 0 -121 27 -59 29 -70
31 -101 21 -34 -12 -64 -51 -64 -85 0 -58 100 -128 202 -141 l49 -7 -23 -25
c-60 -65 -245 -152 -324 -152 -35 0 -84 -51 -84 -86 0 -17 28 -75 69 -144 38
-63 103 -179 144 -258 138 -258 175 -298 468 -495 43 -30 59 -69 47 -115 -18
-69 -68 -66 -235 14 -141 67 -282 209 -503 508 -66 89 -131 173 -146 188 -35
39 -85 38 -125 -1 -43 -44 -39 -75 24 -162 29 -41 56 -80 61 -87 4 -7 -52
-193 -138 -451 -80 -241 -149 -458 -152 -483 -8 -56 7 -85 53 -104 31 -14 38
-13 71 3 30 15 39 27 53 73 52 171 253 770 258 770 3 -1 19 -17 34 -38 15 -20
80 -92 143 -159 128 -136 197 -185 358 -253 86 -37 113 -43 215 -52 387 -33
683 88 937 385 l50 59 104 -364 c56 -200 109 -375 116 -389 39 -77 164 -43
164 44 0 25 -214 793 -241 864 -7 18 3 38 51 105 73 101 79 140 29 182 -32 27
-67 33 -99 16 -10 -6 -84 -97 -164 -204 -218 -291 -328 -395 -490 -460 -63
-25 -232 -64 -240 -55 -3 2 -2 32 1 66 l6 63 66 36 c191 104 313 209 406 349
78 118 245 443 245 477 0 37 -48 88 -84 88 -52 0 -182 51 -250 98 -38 26 -71
52 -73 58 -2 7 15 14 39 18 57 9 127 41 161 73 21 21 27 36 27 68 0 83 -68
107 -167 59 -43 -22 -63 -26 -107 -22 -78 6 -102 26 -117 94 -12 53 -12 58 8
73 50 41 57 103 17 151 l-26 31 22 62 c43 124 142 243 254 306 94 54 171 74
281 75 168 0 291 -50 410 -169 117 -117 169 -241 169 -405 0 -194 -92 -370
-248 -474 -59 -39 -66 -50 -66 -102 0 -47 37 -84 83 -84 51 0 131 -46 187
-107 72 -79 364 -659 374 -745 12 -92 -7 -158 -65 -230 l-49 -61 0 -154 c0
-171 8 -204 58 -221 40 -14 79 -4 102 26 18 22 20 40 20 148 l0 124 44 64 c48
71 76 165 76 258 -1 111 -23 175 -165 459 -76 151 -155 304 -176 341 -45 76
-125 168 -174 198 l-34 21 50 62 c57 71 120 194 144 282 39 146 27 336 -30
478 -131 327 -477 523 -825 466 -326 -52 -579 -311 -630 -644 -51 -334 148
-680 465 -805 33 -14 62 -25 64 -27 6 -4 -129 -254 -172 -317 -23 -34 -62 -82
-88 -108 -50 -50 -178 -138 -266 -182 l-53 -26 -87 56 c-125 80 -204 145 -251
206 -22 29 -84 134 -137 233 -53 99 -101 186 -107 193 -14 16 -15 15 60 45
216 88 393 296 452 531 54 214 7 457 -124 640 -118 166 -323 290 -513 311
-115 12 -129 13 -198 5z"/>
<path d="M1949 2391 c-23 -23 -29 -38 -29 -71 0 -33 6 -48 29 -71 65 -64 171
-20 171 71 0 33 -6 48 -29 71 -23 23 -38 29 -71 29 -33 0 -48 -6 -71 -29z"/>
<path d="M3103 2325 c-68 -29 -80 -120 -22 -169 84 -71 205 26 154 124 -9 18
-31 38 -50 46 -41 17 -42 17 -82 -1z"/>
</g>
</svg>
